# xmcd
#
# Track frame offsets:
#	150
#	6702
#	12686
#	28762
#	57765
#	76917
#	96033
#	115953
#	145090
#	176382
#	198434
#	215193
#	239541
#	263141
#	298542
#	310972
#
# Disc length: 4392 seconds
#
# Revision: 1
# Processed by: cddbd v1.5.2PL0 Copyright (c) Steve Scherf et al.
# Submitted via: EasyCDDAExtractor 2010.4.0.0
#
DISCID=eb112610
DTITLE=Il Quint'etto - Il peso della leggera... La leggerezza della classica..
DTITLE=
DYEAR=1900
DGENRE=
TTITLE0=Hard Headed Woman
TTITLE1=Ciccio's speech
TTITLE2=The Volga Boatman
TTITLE3=Flor d'luna (Moonflower)
TTITLE4=Mozart 2006
TTITLE5=Tu si' 'na cosa grande
TTITLE6=Tu vo' fa'
TTITLE7=Parole
TTITLE8=Cartoon Fantasy
TTITLE9=Oblivion
TTITLE10=Djangology
TTITLE11=Nel blu dipinto di blu
TTITLE12=Fantasia Sconcertante
TTITLE13=Latin Strings
TTITLE14=Non ti fidar (di un bacio a mezzanotte)
TTITLE15=Four Brothers
EXTD=
EXTT0=
EXTT1=
EXTT2=
EXTT3=
EXTT4=
EXTT5=
EXTT6=
EXTT7=
EXTT8=
EXTT9=
EXTT10=
EXTT11=
EXTT12=
EXTT13=
EXTT14=
EXTT15=
PLAYORDER=
